<svg width="9" height="12" viewBox="0 0 9 12" fill="none" xmlns="http://www.w3.org/2000/svg">
<path d="M0.104 11.5V0.299999H4.696C5.47467 0.299999 6.13067 0.422666 6.664 0.667999C7.19733 0.913333 7.59733 1.25467 7.864 1.692C8.14133 2.11867 8.28 2.61467 8.28 3.18C8.28 3.74533 8.15733 4.22 7.912 4.604C7.66667 4.988 7.34133 5.28667 6.936 5.5C6.54133 5.70267 6.104 5.82 5.624 5.852L5.88 5.676C6.392 5.69733 6.84533 5.836 7.24 6.092C7.64533 6.33733 7.96 6.668 8.184 7.084C8.41867 7.5 8.536 7.95333 8.536 8.444C8.536 9.04133 8.392 9.56933 8.104 10.028C7.816 10.4867 7.4 10.8493 6.856 11.116C6.312 11.372 5.64533 11.5 4.856 11.5H0.104ZM2.264 9.74H4.504C5.09067 9.74 5.544 9.60667 5.864 9.34C6.184 9.07333 6.344 8.68933 6.344 8.188C6.344 7.68667 6.17867 7.29733 5.848 7.02C5.51733 6.732 5.05867 6.588 4.472 6.588H2.264V9.74ZM2.264 4.972H4.344C4.90933 4.972 5.336 4.844 5.624 4.588C5.92267 4.332 6.072 3.96933 6.072 3.5C6.072 3.04133 5.92267 2.684 5.624 2.428C5.336 2.16133 4.904 2.028 4.328 2.028H2.264V4.972Z" fill="#4B5050"/>
</svg>
