<svg width="20" height="20" viewBox="0 0 20 20" fill="black" xmlns="http://www.w3.org/2000/svg">
<path d="M5.23905 17.6095C4.52544 17.6095 3.81583 17.5031 3.13364 17.2937C3.02931 17.2616 2.9344 17.2045 2.85718 17.1274C2.77996 17.0502 2.72275 16.9554 2.69055 16.8511C2.25665 15.4293 2.27196 13.9083 2.73438 12.4955C3.1968 11.0827 4.08382 9.84688 5.27446 8.95667L6.37741 8.13469C7.06583 7.62145 7.67621 7.01115 8.1895 6.32281L9.02209 5.20562C9.90104 4.02281 11.1317 3.14842 12.538 2.70762C13.9442 2.26683 15.4539 2.28223 16.8509 2.75164C16.9495 2.78474 17.0391 2.84037 17.1126 2.91412C17.186 2.98787 17.2412 3.07769 17.2739 3.1765C17.7315 4.56297 17.7409 6.05836 17.3007 7.45049C16.8606 8.84261 15.9931 10.0608 14.8215 10.9322L13.6669 11.7934C12.9759 12.3082 12.3634 12.9206 11.8486 13.6115L11.0299 14.7096C10.3567 15.61 9.48274 16.3409 8.47747 16.8443C7.4722 17.3477 6.36334 17.6097 5.23905 17.6095ZM3.87388 16.111C4.99216 16.3785 6.1643 16.3126 7.24555 15.9215C8.3268 15.5303 9.26979 14.8311 9.95805 13.9101L10.7768 12.8097C11.3692 12.0147 12.0739 11.31 12.8688 10.7174L14.0239 9.85618C14.9238 9.18682 15.6026 8.26333 15.9729 7.20474C16.3432 6.14615 16.388 5.00095 16.1015 3.91667C15.007 3.62075 13.8486 3.6612 12.7774 4.03276C11.7061 4.40431 10.7716 5.08976 10.0954 5.99985L9.2623 7.11751C8.67193 7.90978 7.96948 8.61199 7.17699 9.20211L6.07643 10.0241C5.15446 10.7124 4.45447 11.6557 4.06302 12.7375C3.67156 13.8194 3.6058 14.9922 3.87388 16.111Z" />
<path d="M14.6443 17.6264C13.5606 17.6262 12.4919 17.3726 11.5236 16.886C10.5553 16.3994 9.71418 15.6931 9.06737 14.8237L8.20607 13.6692C7.69095 12.9785 7.07849 12.3661 6.38776 11.8511L5.2896 11.0324C4.09896 10.1422 3.21193 8.90642 2.74951 7.49362C2.28709 6.08082 2.27179 4.55978 2.70568 3.13796C2.73789 3.03368 2.79509 2.93886 2.87232 2.86173C2.94954 2.7846 3.04445 2.72749 3.14878 2.69539C4.57075 2.26155 6.09195 2.27685 7.5049 2.73922C8.91785 3.20159 10.1538 4.08852 11.0441 5.27903L11.8661 6.37947C12.3792 7.06804 12.9896 7.67839 13.6782 8.19137L14.7955 9.02387C15.9787 9.90305 16.8533 11.1341 17.294 12.5407C17.7347 13.9472 17.7189 15.4572 17.2488 16.8542C17.2157 16.9529 17.1601 17.0425 17.0863 17.1159C17.0126 17.1893 16.9227 17.2445 16.8239 17.2772C16.1206 17.5087 15.3848 17.6266 14.6443 17.6264ZM3.88902 3.87622C3.62149 4.99438 3.68738 6.1664 4.07855 7.24753C4.46972 8.32866 5.16904 9.27154 6.09013 9.95973L7.18829 10.7784C7.98343 11.3708 8.68828 12.0756 9.28078 12.8706L10.1421 14.0251C10.8115 14.925 11.7351 15.6038 12.7937 15.9742C13.8524 16.3445 14.9978 16.3894 16.0822 16.103C16.3783 15.0085 16.3379 13.8502 15.9663 12.779C15.5947 11.7078 14.9091 10.7732 13.9988 10.097L12.881 9.26406C12.0888 8.6738 11.3865 7.97161 10.7962 7.17945L9.97413 6.07663C9.28574 5.15555 8.34258 4.45627 7.26114 4.06522C6.17971 3.67417 5.00739 3.60846 3.88902 3.87622Z" />
<path d="M14.1584 13.7969C13.6591 13.797 13.1613 13.7397 12.6751 13.6261L11.5448 13.3615C10.4863 13.1156 9.38545 13.1156 8.32691 13.3615L7.1785 13.6294C5.78885 13.9537 4.33039 13.7987 3.03993 13.1897C1.74947 12.5806 0.702796 11.5533 0.0698595 10.2745C0.023906 10.182 0 10.08 0 9.97668C0 9.87334 0.023906 9.7714 0.0698595 9.67884C0.703315 8.41459 1.74412 7.40048 3.02446 6.8C4.30481 6.19952 5.75008 6.04767 7.1273 6.36892L8.32643 6.64882C9.38497 6.89475 10.4858 6.89475 11.5444 6.64882L12.6784 6.38422C14.0821 6.05658 15.5548 6.20378 16.8659 6.80275C18.177 7.40172 19.2523 8.41863 19.9234 9.69416C19.9737 9.79011 20 9.89682 20 10.0052C20 10.1135 19.9737 10.2202 19.9234 10.3161C19.3707 11.3663 18.5415 12.2455 17.5255 12.859C16.5095 13.4724 15.3453 13.7967 14.1584 13.7969ZM9.9342 11.8405C10.5785 11.8402 11.2207 11.9137 11.8482 12.0596L12.9823 12.3242C14.0381 12.5706 15.1447 12.4794 16.1459 12.0633C17.1472 11.6472 17.9924 10.9273 18.5626 10.0052C17.9924 9.08257 17.1468 8.36238 16.1452 7.94627C15.1435 7.53016 14.0365 7.43914 12.9803 7.68609L11.8463 7.95069C10.5878 8.24302 9.27912 8.24302 8.02067 7.95069L6.82154 7.67079C5.79344 7.42784 4.71452 7.52097 3.74327 7.93648C2.77202 8.352 1.95964 9.068 1.42546 9.97932C1.96253 10.9018 2.78132 11.6277 3.76153 12.0505C4.74174 12.4732 5.8317 12.5705 6.8713 12.328L8.01971 12.0596C8.64741 11.9137 9.28976 11.8402 9.9342 11.8405Z" />
<path d="M9.99419 20C9.88637 19.9999 9.78017 19.9738 9.6846 19.9239C8.39392 19.249 7.35456 18.1768 6.72004 16.8659C6.08553 15.5549 5.88949 14.0747 6.1609 12.6438L6.42408 11.2563C6.59011 10.3851 6.59011 9.4903 6.42408 8.61907L6.15803 7.21576C5.89207 5.79839 6.09684 4.33296 6.74111 3.04275C7.38538 1.75253 8.43383 0.708288 9.7267 0.0691512C9.8189 0.0236634 9.92033 0 10.0231 0C10.1259 0 10.2274 0.0236634 10.3196 0.0691512C11.5999 0.706213 12.6369 1.74416 13.2727 3.02497C13.9086 4.30577 14.1084 5.75926 13.8418 7.16411L13.5662 8.61764C13.4002 9.48888 13.4002 10.3836 13.5662 11.2549L13.8294 12.6424C14.1009 14.0733 13.9049 15.5537 13.2704 16.8647C12.6359 18.1758 11.5965 19.248 10.3057 19.923C10.2096 19.9735 10.1027 19.9999 9.99419 20ZM10.0196 1.42699C9.07353 1.97258 8.32028 2.79843 7.86385 3.79047C7.40742 4.78251 7.27034 5.89178 7.47152 6.96507L7.73756 8.36837C7.93519 9.40413 7.93519 10.4679 7.73756 11.5037L7.47439 12.8912C7.268 13.9806 7.3986 15.1071 7.84879 16.1205C8.29897 17.1338 9.04736 17.986 9.99419 18.5632C10.9413 17.9863 11.69 17.1342 12.1403 16.1208C12.5906 15.1073 12.7211 13.9807 12.5145 12.8912L12.2513 11.5037C12.0537 10.4679 12.0537 9.40413 12.2513 8.36837L12.5269 6.91531C12.7253 5.85366 12.5909 4.75667 12.1421 3.7743C11.6933 2.79193 10.952 1.97214 10.0196 1.42699Z" />
</svg>
