<svg width="554" height="231" viewBox="0 0 554 231" fill="none" xmlns="http://www.w3.org/2000/svg">
<rect width="542" height="189" rx="32" fill="#78D0BC"/>
<path d="M39.008 127V59.8H61.76C67.072 59.8 71.424 60.696 74.816 62.488C78.208 64.28 80.704 66.68 82.304 69.688C83.968 72.632 84.8 75.992 84.8 79.768C84.8 83.352 83.968 86.68 82.304 89.752C80.704 92.76 78.176 95.192 74.72 97.048C71.264 98.84 66.848 99.736 61.472 99.736H48.608V127H39.008ZM74.336 127L59.84 97.144H70.4L85.472 127H74.336ZM48.608 92.44H61.088C65.824 92.44 69.312 91.288 71.552 88.984C73.792 86.616 74.912 83.608 74.912 79.96C74.912 76.248 73.824 73.304 71.648 71.128C69.472 68.952 65.952 67.864 61.088 67.864H48.608V92.44ZM106.129 128.152C101.521 128.152 97.4245 127.096 93.8405 124.984C90.2565 122.872 87.4405 119.928 85.3925 116.152C83.4085 112.376 82.4165 107.992 82.4165 103C82.4165 97.88 83.4085 93.432 85.3925 89.656C87.4405 85.816 90.2565 82.84 93.8405 80.728C97.4245 78.552 101.585 77.464 106.321 77.464C111.057 77.464 115.121 78.52 118.513 80.632C121.905 82.744 124.529 85.56 126.385 89.08C128.241 92.536 129.169 96.376 129.169 100.6C129.169 101.24 129.137 101.944 129.073 102.712C129.073 103.416 129.041 104.216 128.977 105.112H89.4245V98.296H119.569C119.377 94.264 118.033 91.128 115.537 88.888C113.041 86.584 109.937 85.432 106.225 85.432C103.601 85.432 101.201 86.04 99.0245 87.256C96.8485 88.408 95.0885 90.136 93.7445 92.44C92.4645 94.68 91.8245 97.528 91.8245 100.984V103.672C91.8245 107.256 92.4645 110.296 93.7445 112.792C95.0885 115.224 96.8485 117.08 99.0245 118.36C101.201 119.576 103.569 120.184 106.129 120.184C109.201 120.184 111.729 119.512 113.713 118.168C115.697 116.824 117.169 115 118.129 112.696H127.729C126.897 115.64 125.489 118.296 123.505 120.664C121.521 122.968 119.057 124.792 116.113 126.136C113.233 127.48 109.905 128.152 106.129 128.152ZM148.794 127C145.786 127 143.162 126.52 140.922 125.56C138.682 124.6 136.954 123 135.738 120.76C134.522 118.52 133.914 115.48 133.914 111.64V86.776H125.562V78.616H133.914L135.066 66.52H143.514V78.616H157.242V86.776H143.514V111.736C143.514 114.488 144.09 116.376 145.242 117.4C146.394 118.36 148.378 118.84 151.194 118.84H156.762V127H148.794ZM158.228 127V78.616H166.868L167.732 87.736C168.82 85.56 170.228 83.736 171.956 82.264C173.684 80.728 175.7 79.544 178.004 78.712C180.372 77.88 183.06 77.464 186.068 77.464V87.64H182.612C180.628 87.64 178.74 87.896 176.948 88.408C175.156 88.856 173.556 89.656 172.148 90.808C170.804 91.96 169.748 93.528 168.98 95.512C168.212 97.496 167.828 99.96 167.828 102.904V127H158.228ZM205.864 128.152C201.32 128.152 197.224 127.096 193.576 124.984C189.992 122.872 187.144 119.928 185.032 116.152C182.984 112.312 181.96 107.896 181.96 102.904C181.96 97.784 183.016 93.336 185.128 89.56C187.24 85.72 190.12 82.744 193.768 80.632C197.416 78.52 201.512 77.464 206.056 77.464C210.664 77.464 214.76 78.52 218.344 80.632C221.928 82.744 224.744 85.688 226.792 89.464C228.904 93.24 229.96 97.688 229.96 102.808C229.96 107.928 228.904 112.376 226.792 116.152C224.744 119.928 221.896 122.872 218.248 124.984C214.6 127.096 210.472 128.152 205.864 128.152ZM205.864 119.896C208.488 119.896 210.856 119.256 212.968 117.976C215.144 116.696 216.872 114.808 218.152 112.312C219.496 109.752 220.168 106.584 220.168 102.808C220.168 99.032 219.528 95.896 218.248 93.4C216.968 90.84 215.24 88.92 213.064 87.64C210.952 86.36 208.616 85.72 206.056 85.72C203.496 85.72 201.128 86.36 198.952 87.64C196.776 88.92 195.016 90.84 193.672 93.4C192.392 95.896 191.752 99.032 191.752 102.808C191.752 106.584 192.392 109.752 193.672 112.312C195.016 114.808 196.744 116.696 198.856 117.976C201.032 119.256 203.368 119.896 205.864 119.896ZM234.245 127V72.088C234.245 68.76 234.789 66.04 235.877 63.928C237.029 61.816 238.693 60.28 240.869 59.32C243.045 58.36 245.669 57.88 248.741 57.88H254.405V66.04H250.277C247.973 66.04 246.309 66.52 245.285 67.48C244.325 68.376 243.845 69.976 243.845 72.28V127H234.245ZM227.141 86.776V78.616H255.461V86.776H227.141ZM273.375 128.152C269.599 128.152 266.303 127.384 263.487 125.848C260.735 124.312 258.591 122.008 257.055 118.936C255.583 115.864 254.847 111.992 254.847 107.32V78.616H264.447V106.264C264.447 110.808 265.439 114.232 267.423 116.536C269.407 118.84 272.255 119.992 275.967 119.992C278.463 119.992 280.703 119.384 282.687 118.168C284.735 116.952 286.335 115.192 287.487 112.888C288.639 110.584 289.215 107.768 289.215 104.44V78.616H298.815V127H290.271L289.599 118.744C288.127 121.688 285.983 123.992 283.167 125.656C280.351 127.32 277.087 128.152 273.375 128.152ZM302.359 127V78.616H310.999L311.575 86.872C313.111 83.992 315.287 81.72 318.103 80.056C320.919 78.328 324.151 77.464 327.799 77.464C331.639 77.464 334.935 78.232 337.687 79.768C340.439 81.304 342.583 83.64 344.119 86.776C345.655 89.848 346.423 93.72 346.423 98.392V127H336.823V99.352C336.823 94.872 335.831 91.48 333.847 89.176C331.863 86.872 328.983 85.72 325.207 85.72C322.711 85.72 320.471 86.328 318.487 87.544C316.503 88.696 314.903 90.424 313.687 92.728C312.535 95.032 311.959 97.848 311.959 101.176V127H302.359ZM370.607 128.152C365.999 128.152 361.935 127.064 358.415 124.888C354.895 122.648 352.143 119.64 350.159 115.864C348.239 112.024 347.279 107.672 347.279 102.808C347.279 97.88 348.239 93.528 350.159 89.752C352.143 85.976 354.895 83 358.415 80.824C361.999 78.584 366.095 77.464 370.703 77.464C374.479 77.464 377.807 78.232 380.687 79.768C383.567 81.24 385.807 83.352 387.407 86.104V57.88H397.007V127H388.463L387.407 119.512C386.447 120.984 385.199 122.392 383.663 123.736C382.127 125.016 380.271 126.072 378.095 126.904C375.919 127.736 373.423 128.152 370.607 128.152ZM372.143 119.8C375.151 119.8 377.807 119.096 380.111 117.688C382.415 116.28 384.175 114.296 385.391 111.736C386.671 109.176 387.311 106.2 387.311 102.808C387.311 99.416 386.671 96.472 385.391 93.976C384.175 91.416 382.415 89.432 380.111 88.024C377.807 86.552 375.151 85.816 372.143 85.816C369.263 85.816 366.671 86.552 364.367 88.024C362.063 89.432 360.271 91.416 358.991 93.976C357.711 96.472 357.071 99.416 357.071 102.808C357.071 106.2 357.711 109.176 358.991 111.736C360.271 114.296 362.063 116.28 364.367 117.688C366.671 119.096 369.263 119.8 372.143 119.8ZM401.206 127V78.616H410.806V127H401.206ZM406.102 69.496C404.246 69.496 402.71 68.92 401.494 67.768C400.342 66.616 399.766 65.144 399.766 63.352C399.766 61.624 400.342 60.216 401.494 59.128C402.71 57.976 404.246 57.4 406.102 57.4C407.894 57.4 409.398 57.976 410.614 59.128C411.83 60.216 412.438 61.624 412.438 63.352C412.438 65.144 411.83 66.616 410.614 67.768C409.398 68.92 407.894 69.496 406.102 69.496ZM414.934 127V78.616H423.574L424.15 86.872C425.686 83.992 427.862 81.72 430.678 80.056C433.494 78.328 436.726 77.464 440.374 77.464C444.214 77.464 447.51 78.232 450.262 79.768C453.014 81.304 455.158 83.64 456.694 86.776C458.23 89.848 458.998 93.72 458.998 98.392V127H449.398V99.352C449.398 94.872 448.406 91.48 446.422 89.176C444.438 86.872 441.558 85.72 437.782 85.72C435.286 85.72 433.046 86.328 431.062 87.544C429.078 88.696 427.478 90.424 426.262 92.728C425.11 95.032 424.534 97.848 424.534 101.176V127H414.934ZM481.358 149.272C476.942 149.272 473.038 148.696 469.646 147.544C466.254 146.456 463.63 144.76 461.774 142.456C459.918 140.152 458.99 137.336 458.99 134.008C458.99 132.28 459.374 130.52 460.142 128.728C460.91 127 462.158 125.336 463.886 123.736C465.614 122.136 467.95 120.696 470.894 119.416L476.27 123.736C473.006 124.952 470.798 126.392 469.646 128.056C468.558 129.784 468.014 131.448 468.014 133.048C468.014 134.968 468.59 136.568 469.742 137.848C470.894 139.128 472.462 140.088 474.446 140.728C476.494 141.368 478.798 141.688 481.358 141.688C483.854 141.688 486.03 141.336 487.886 140.632C489.742 139.928 491.182 138.936 492.206 137.656C493.23 136.376 493.742 134.872 493.742 133.144C493.742 131.096 492.974 129.368 491.438 127.96C489.902 126.616 486.958 125.816 482.606 125.56C478.958 125.304 475.854 124.952 473.294 124.504C470.798 124.056 468.654 123.512 466.862 122.872C465.134 122.232 463.662 121.528 462.446 120.76C461.294 119.992 460.302 119.192 459.47 118.36V116.152L469.07 106.264L476.846 108.952L466.382 118.648L468.398 114.328C469.102 114.776 469.774 115.224 470.414 115.672C471.054 116.056 471.918 116.408 473.006 116.728C474.094 117.048 475.566 117.336 477.422 117.592C479.278 117.848 481.71 118.104 484.718 118.36C489.07 118.68 492.558 119.448 495.182 120.664C497.87 121.88 499.822 123.512 501.038 125.56C502.254 127.608 502.862 130.04 502.862 132.856C502.862 135.608 502.094 138.232 500.558 140.728C499.086 143.224 496.75 145.272 493.55 146.872C490.414 148.472 486.35 149.272 481.358 149.272ZM481.358 112.12C477.262 112.12 473.774 111.352 470.894 109.816C468.078 108.28 465.902 106.2 464.366 103.576C462.894 100.952 462.158 98.04 462.158 94.84C462.158 91.576 462.894 88.664 464.366 86.104C465.902 83.48 468.11 81.4 470.99 79.864C473.87 78.264 477.326 77.464 481.358 77.464C485.39 77.464 488.814 78.264 491.63 79.864C494.51 81.4 496.686 83.48 498.158 86.104C499.694 88.664 500.462 91.576 500.462 94.84C500.462 98.04 499.694 100.952 498.158 103.576C496.686 106.2 494.51 108.28 491.63 109.816C488.814 111.352 485.39 112.12 481.358 112.12ZM481.358 104.44C484.494 104.44 486.99 103.64 488.846 102.04C490.702 100.376 491.63 97.976 491.63 94.84C491.63 91.704 490.702 89.336 488.846 87.736C486.99 86.072 484.494 85.24 481.358 85.24C478.222 85.24 475.694 86.072 473.774 87.736C471.854 89.336 470.894 91.704 470.894 94.84C470.894 97.976 471.854 100.376 473.774 102.04C475.694 103.64 478.222 104.44 481.358 104.44ZM489.23 86.2L486.926 78.616H506.798V85.24L489.23 86.2Z" fill="black"/>
<rect x="424.5" y="166" width="129" height="64.3193" rx="16" fill="#D5F2EA"/>
<g clip-path="url(#clip0_475_12329)">
<path d="M470.779 214.012V201.2H467.153V197.442H478.471V201.201H474.845V214.013H470.78L470.779 214.012Z" fill="#130C03"/>
<path d="M441.07 205.793C441.07 200.651 445.004 197.134 449.97 197.134C452.959 197.134 455.662 198.343 457.398 200.936L453.816 202.804C452.848 201.485 451.596 200.782 450.014 200.782C447.223 200.782 445.267 202.958 445.267 205.815C445.267 208.672 447.399 210.804 449.882 210.804C451.926 210.804 453.398 209.573 453.662 207.947V207.924H450.19V204.804H458.211V205.507C458.211 210.913 454.98 214.298 449.838 214.298C444.981 214.298 441.07 210.804 441.07 205.793Z" fill="#130C03"/>
<path d="M460.999 214.012V197.442H465.064V214.012H460.999Z" fill="#130C03"/>
<path d="M514.302 214.012V197.442H518.367V214.012H514.302Z" fill="#130C03"/>
<path d="M533.496 197.442H537.473V214.012H534.177L525.87 203.574L525.937 214.012H521.937V197.442H525.322L533.628 207.815L533.497 197.442H533.496Z" fill="#130C03"/>
<path d="M488.32 210.54C485.793 210.54 483.661 208.562 483.661 205.728C483.661 203.047 485.705 200.915 488.365 200.915C489.674 200.915 490.818 201.41 491.649 202.231C492.051 200.95 492.675 199.751 493.505 198.68C492.051 197.709 490.283 197.157 488.386 197.157C483.507 197.157 479.463 200.805 479.463 205.705C479.463 210.848 483.528 214.297 488.32 214.297C490.233 214.297 492.015 213.762 493.477 212.81C492.657 211.74 492.038 210.534 491.642 209.237C490.798 210.053 489.638 210.54 488.32 210.54Z" fill="#130C03"/>
<path d="M502.892 197.157C499.83 197.157 497.098 198.594 495.487 200.875C494.531 202.229 493.969 203.88 493.969 205.705C493.969 207.53 494.529 209.286 495.478 210.639C497.086 212.932 499.813 214.297 502.826 214.297C507.727 214.297 511.771 210.781 511.771 205.749C511.771 200.717 507.749 197.157 502.892 197.157ZM502.826 210.54C500.299 210.54 498.168 208.562 498.168 205.728C498.168 203.047 500.211 200.915 502.871 200.915C505.53 200.915 507.574 203.024 507.574 205.75C507.574 208.475 505.53 210.54 502.827 210.54H502.826Z" fill="#130C03"/>
<path d="M444.31 185.976C444.787 185.976 445.233 186.096 445.645 186.335C446.065 186.574 446.402 186.914 446.655 187.356C446.909 187.797 447.036 188.308 447.036 188.887C447.036 189.466 446.909 189.98 446.655 190.429C446.402 190.871 446.069 191.211 445.656 191.45C445.244 191.689 444.802 191.809 444.331 191.809C443.984 191.809 443.676 191.747 443.408 191.624C443.147 191.494 442.956 191.352 442.832 191.2V193.731H441.051V186.128H442.507L442.746 186.671C442.89 186.498 443.089 186.338 443.343 186.193C443.604 186.049 443.926 185.976 444.31 185.976ZM444.027 187.584C443.694 187.584 443.412 187.707 443.18 187.953C442.948 188.199 442.832 188.51 442.832 188.887C442.832 189.271 442.945 189.586 443.169 189.832C443.401 190.078 443.687 190.201 444.027 190.201C444.367 190.201 444.657 190.078 444.896 189.832C445.135 189.578 445.254 189.263 445.254 188.887C445.254 188.51 445.135 188.199 444.896 187.953C444.657 187.707 444.367 187.584 444.027 187.584ZM450.271 191.809C449.757 191.809 449.275 191.689 448.826 191.45C448.384 191.211 448.03 190.871 447.762 190.429C447.494 189.987 447.36 189.477 447.36 188.898C447.36 188.319 447.494 187.808 447.762 187.366C448.03 186.917 448.384 186.574 448.826 186.335C449.275 186.096 449.757 185.976 450.271 185.976C450.785 185.976 451.263 186.096 451.704 186.335C452.153 186.574 452.512 186.917 452.779 187.366C453.047 187.808 453.181 188.319 453.181 188.898C453.181 189.477 453.047 189.987 452.779 190.429C452.512 190.871 452.153 191.211 451.704 191.45C451.263 191.689 450.785 191.809 450.271 191.809ZM450.271 190.147C450.582 190.147 450.846 190.031 451.063 189.799C451.288 189.568 451.4 189.267 451.4 188.898C451.4 188.529 451.288 188.228 451.063 187.996C450.846 187.757 450.582 187.638 450.271 187.638C449.952 187.638 449.684 187.754 449.467 187.985C449.25 188.217 449.141 188.521 449.141 188.898C449.141 189.267 449.25 189.568 449.467 189.799C449.684 190.031 449.952 190.147 450.271 190.147ZM461.763 186.128L460.036 191.656H458.234L457.43 188.518L456.604 191.656H454.802L453.075 186.128H454.845L455.736 189.604L456.659 186.128H458.201L459.102 189.582L459.993 186.128H461.763ZM463.208 189.43C463.244 189.676 463.371 189.893 463.588 190.082C463.813 190.27 464.084 190.364 464.403 190.364C464.693 190.364 464.921 190.299 465.087 190.169C465.254 190.038 465.37 189.901 465.435 189.756L466.901 190.179C466.713 190.693 466.412 191.095 465.999 191.385C465.587 191.667 465.051 191.809 464.392 191.809C463.892 191.809 463.425 191.689 462.991 191.45C462.557 191.211 462.205 190.871 461.938 190.429C461.677 189.987 461.547 189.477 461.547 188.898C461.547 188.326 461.673 187.819 461.927 187.377C462.18 186.936 462.524 186.592 462.958 186.345C463.393 186.099 463.871 185.976 464.392 185.976C464.935 185.976 465.402 186.103 465.793 186.356C466.191 186.603 466.495 186.946 466.705 187.388C466.915 187.823 467.02 188.319 467.02 188.876V189.43H463.208ZM465.489 188.311C465.496 188.232 465.464 188.116 465.391 187.964C465.326 187.812 465.21 187.674 465.044 187.551C464.884 187.428 464.667 187.366 464.392 187.366C464.059 187.366 463.791 187.457 463.588 187.638C463.393 187.819 463.27 188.043 463.219 188.311H465.489ZM467.568 186.128H469.024L469.274 186.693C469.389 186.498 469.556 186.331 469.773 186.193C469.99 186.049 470.251 185.976 470.555 185.976C470.903 185.976 471.203 186.056 471.457 186.215L470.848 187.801C470.696 187.692 470.508 187.638 470.284 187.638C470.001 187.638 469.773 187.728 469.599 187.909C469.433 188.09 469.35 188.366 469.35 188.735V191.656H467.568V186.128ZM472.845 189.43C472.881 189.676 473.008 189.893 473.225 190.082C473.449 190.27 473.721 190.364 474.039 190.364C474.329 190.364 474.557 190.299 474.724 190.169C474.89 190.038 475.006 189.901 475.071 189.756L476.537 190.179C476.349 190.693 476.049 191.095 475.636 191.385C475.223 191.667 474.687 191.809 474.029 191.809C473.529 191.809 473.062 191.689 472.628 191.45C472.193 191.211 471.842 190.871 471.574 190.429C471.313 189.987 471.183 189.477 471.183 188.898C471.183 188.326 471.31 187.819 471.563 187.377C471.817 186.936 472.161 186.592 472.595 186.345C473.029 186.099 473.507 185.976 474.029 185.976C474.572 185.976 475.039 186.103 475.43 186.356C475.828 186.603 476.132 186.946 476.342 187.388C476.552 187.823 476.657 188.319 476.657 188.876V189.43H472.845ZM475.126 188.311C475.133 188.232 475.1 188.116 475.028 187.964C474.963 187.812 474.847 187.674 474.68 187.551C474.521 187.428 474.304 187.366 474.029 187.366C473.696 187.366 473.428 187.457 473.225 187.638C473.029 187.819 472.906 188.043 472.856 188.311H475.126ZM479.714 191.809C479.236 191.809 478.787 191.689 478.367 191.45C477.954 191.211 477.621 190.871 477.368 190.429C477.114 189.987 476.988 189.477 476.988 188.898C476.988 188.319 477.114 187.808 477.368 187.366C477.621 186.917 477.954 186.574 478.367 186.335C478.78 186.096 479.221 185.976 479.692 185.976C480.04 185.976 480.344 186.041 480.604 186.172C480.872 186.295 481.068 186.432 481.191 186.584V184.054H482.972V191.656H481.517L481.278 191.113C481.133 191.287 480.93 191.446 480.669 191.591C480.416 191.736 480.098 191.809 479.714 191.809ZM479.996 190.201C480.329 190.201 480.612 190.078 480.843 189.832C481.075 189.586 481.191 189.274 481.191 188.898C481.191 188.514 481.075 188.199 480.843 187.953C480.619 187.707 480.336 187.584 479.996 187.584C479.656 187.584 479.366 187.71 479.127 187.964C478.888 188.21 478.769 188.521 478.769 188.898C478.769 189.274 478.888 189.586 479.127 189.832C479.366 190.078 479.656 190.201 479.996 190.201ZM489.707 191.809C489.324 191.809 489.001 191.736 488.741 191.591C488.487 191.446 488.288 191.287 488.143 191.113L487.904 191.656H486.449V184.054H488.23V186.584C488.353 186.432 488.545 186.295 488.806 186.172C489.074 186.041 489.381 185.976 489.729 185.976C490.199 185.976 490.641 186.096 491.054 186.335C491.466 186.574 491.8 186.917 492.053 187.366C492.306 187.808 492.433 188.319 492.433 188.898C492.433 189.477 492.306 189.987 492.053 190.429C491.8 190.871 491.463 191.211 491.043 191.45C490.63 191.689 490.185 191.809 489.707 191.809ZM489.425 190.201C489.765 190.201 490.055 190.078 490.294 189.832C490.533 189.586 490.652 189.274 490.652 188.898C490.652 188.521 490.533 188.21 490.294 187.964C490.055 187.71 489.765 187.584 489.425 187.584C489.085 187.584 488.798 187.707 488.567 187.953C488.342 188.199 488.23 188.514 488.23 188.898C488.23 189.274 488.346 189.586 488.577 189.832C488.809 190.078 489.092 190.201 489.425 190.201ZM498.286 186.128V191.32C498.264 192.174 497.989 192.815 497.46 193.242C496.939 193.677 496.269 193.894 495.451 193.894C494.77 193.894 494.22 193.727 493.8 193.394C493.388 193.068 493.112 192.645 492.975 192.123L494.615 191.809C494.644 191.982 494.727 192.123 494.865 192.232C495.009 192.341 495.205 192.395 495.451 192.395C495.755 192.395 496.005 192.301 496.2 192.113C496.403 191.924 496.505 191.635 496.505 191.244V190.896L496.494 190.874C496.327 191.07 496.132 191.226 495.907 191.341C495.69 191.457 495.407 191.515 495.06 191.515C494.358 191.515 493.84 191.305 493.507 190.885C493.174 190.458 493.008 189.799 493.008 188.909V186.128H494.788V188.746C494.788 189.137 494.861 189.419 495.006 189.593C495.151 189.767 495.361 189.854 495.636 189.854C496.215 189.854 496.505 189.492 496.505 188.767V186.128H498.286Z" fill="black"/>
</g>
<defs>
<clipPath id="clip0_475_12329">
<rect width="97" height="32.3193" fill="white" transform="translate(440.5 182)"/>
</clipPath>
</defs>
</svg>
