<svg width="280" height="231" viewBox="0 0 280 231" fill="none" xmlns="http://www.w3.org/2000/svg">
<rect x="0.5" width="260" height="189" rx="32" fill="#BFBAF8"/>
<path d="M59.38 127L34.42 59.8H44.788L65.14 117.016L85.684 59.8H95.86L70.9 127H59.38ZM110.664 128.152C106.12 128.152 102.024 127.096 98.3763 124.984C94.7923 122.872 91.9443 119.928 89.8323 116.152C87.7843 112.312 86.7603 107.896 86.7603 102.904C86.7603 97.784 87.8163 93.336 89.9283 89.56C92.0403 85.72 94.9203 82.744 98.5683 80.632C102.216 78.52 106.312 77.464 110.856 77.464C115.464 77.464 119.56 78.52 123.144 80.632C126.728 82.744 129.544 85.688 131.592 89.464C133.704 93.24 134.76 97.688 134.76 102.808C134.76 107.928 133.704 112.376 131.592 116.152C129.544 119.928 126.696 122.872 123.048 124.984C119.4 127.096 115.272 128.152 110.664 128.152ZM110.664 119.896C113.288 119.896 115.656 119.256 117.768 117.976C119.944 116.696 121.672 114.808 122.952 112.312C124.296 109.752 124.968 106.584 124.968 102.808C124.968 99.032 124.328 95.896 123.048 93.4C121.768 90.84 120.04 88.92 117.864 87.64C115.752 86.36 113.416 85.72 110.856 85.72C108.296 85.72 105.928 86.36 103.752 87.64C101.576 88.92 99.8163 90.84 98.4723 93.4C97.1923 95.896 96.5523 99.032 96.5523 102.808C96.5523 106.584 97.1923 109.752 98.4723 112.312C99.8163 114.808 101.544 116.696 103.656 117.976C105.832 119.256 108.168 119.896 110.664 119.896ZM154.45 127C151.442 127 148.818 126.52 146.578 125.56C144.338 124.6 142.61 123 141.394 120.76C140.178 118.52 139.57 115.48 139.57 111.64V86.776H131.218V78.616H139.57L140.722 66.52H149.17V78.616H162.898V86.776H149.17V111.736C149.17 114.488 149.746 116.376 150.898 117.4C152.05 118.36 154.034 118.84 156.85 118.84H162.418V127H154.45ZM184.46 128.152C179.852 128.152 175.756 127.096 172.172 124.984C168.588 122.872 165.772 119.928 163.724 116.152C161.74 112.376 160.748 107.992 160.748 103C160.748 97.88 161.74 93.432 163.724 89.656C165.772 85.816 168.588 82.84 172.172 80.728C175.756 78.552 179.916 77.464 184.652 77.464C189.388 77.464 193.452 78.52 196.844 80.632C200.236 82.744 202.86 85.56 204.716 89.08C206.572 92.536 207.5 96.376 207.5 100.6C207.5 101.24 207.468 101.944 207.404 102.712C207.404 103.416 207.372 104.216 207.308 105.112H167.756V98.296H197.9C197.708 94.264 196.364 91.128 193.868 88.888C191.372 86.584 188.268 85.432 184.556 85.432C181.932 85.432 179.532 86.04 177.356 87.256C175.18 88.408 173.42 90.136 172.076 92.44C170.796 94.68 170.156 97.528 170.156 100.984V103.672C170.156 107.256 170.796 110.296 172.076 112.792C173.42 115.224 175.18 117.08 177.356 118.36C179.532 119.576 181.9 120.184 184.46 120.184C187.532 120.184 190.06 119.512 192.044 118.168C194.028 116.824 195.5 115 196.46 112.696H206.06C205.228 115.64 203.82 118.296 201.836 120.664C199.852 122.968 197.388 124.792 194.444 126.136C191.564 127.48 188.236 128.152 184.46 128.152ZM210.87 107.032L209.718 59.8H220.086L219.03 107.032H210.87ZM214.998 127.48C213.142 127.48 211.606 126.904 210.39 125.752C209.238 124.536 208.662 123.096 208.662 121.432C208.662 119.704 209.238 118.264 210.39 117.112C211.606 115.896 213.142 115.288 214.998 115.288C216.79 115.288 218.262 115.896 219.414 117.112C220.63 118.264 221.238 119.704 221.238 121.432C221.238 123.096 220.63 124.536 219.414 125.752C218.262 126.904 216.79 127.48 214.998 127.48Z" fill="black"/>
<rect x="140" y="166" width="129" height="64.3193" rx="16" fill="#EBEAFD"/>
<g clip-path="url(#clip0_613_9180)">
<path d="M186.278 214.012V201.2H182.653V197.442H193.97V201.201H190.345V214.013H186.279L186.278 214.012Z" fill="#130C03"/>
<path d="M156.57 205.793C156.57 200.651 160.504 197.134 165.47 197.134C168.459 197.134 171.162 198.343 172.898 200.936L169.316 202.804C168.349 201.485 167.096 200.782 165.514 200.782C162.723 200.782 160.767 202.958 160.767 205.815C160.767 208.672 162.899 210.804 165.382 210.804C167.426 210.804 168.899 209.573 169.162 207.947V207.924H165.69V204.804H173.711V205.507C173.711 210.913 170.48 214.298 165.339 214.298C160.482 214.298 156.57 210.804 156.57 205.793Z" fill="#130C03"/>
<path d="M176.499 214.012V197.442H180.564V214.012H176.499Z" fill="#130C03"/>
<path d="M229.802 214.012V197.442H233.867V214.012H229.802Z" fill="#130C03"/>
<path d="M248.996 197.442H252.973V214.012H249.677L241.37 203.574L241.437 214.012H237.437V197.442H240.822L249.128 207.815L248.997 197.442H248.996Z" fill="#130C03"/>
<path d="M203.82 210.54C201.293 210.54 199.161 208.562 199.161 205.728C199.161 203.047 201.205 200.915 203.865 200.915C205.174 200.915 206.318 201.41 207.149 202.231C207.551 200.95 208.175 199.751 209.005 198.68C207.551 197.709 205.783 197.157 203.886 197.157C199.007 197.157 194.963 200.805 194.963 205.705C194.963 210.848 199.028 214.297 203.82 214.297C205.733 214.297 207.515 213.762 208.977 212.81C208.157 211.74 207.538 210.534 207.142 209.237C206.298 210.053 205.138 210.54 203.82 210.54Z" fill="#130C03"/>
<path d="M218.392 197.157C215.33 197.157 212.598 198.594 210.986 200.875C210.031 202.229 209.469 203.88 209.469 205.705C209.469 207.53 210.029 209.286 210.977 210.639C212.585 212.932 215.312 214.297 218.326 214.297C223.226 214.297 227.271 210.781 227.271 205.749C227.271 200.717 223.249 197.157 218.392 197.157ZM218.326 210.54C215.799 210.54 213.667 208.562 213.667 205.728C213.667 203.047 215.711 200.915 218.371 200.915C221.03 200.915 223.074 203.024 223.074 205.75C223.074 208.475 221.03 210.54 218.327 210.54H218.326Z" fill="#130C03"/>
<path d="M159.81 185.976C160.287 185.976 160.733 186.096 161.145 186.335C161.565 186.574 161.902 186.914 162.155 187.356C162.409 187.797 162.536 188.308 162.536 188.887C162.536 189.466 162.409 189.98 162.155 190.429C161.902 190.871 161.569 191.211 161.156 191.45C160.744 191.689 160.302 191.809 159.831 191.809C159.484 191.809 159.176 191.747 158.908 191.624C158.647 191.494 158.456 191.352 158.332 191.2V193.731H156.551V186.128H158.007L158.246 186.671C158.39 186.498 158.589 186.338 158.843 186.193C159.104 186.049 159.426 185.976 159.81 185.976ZM159.527 187.584C159.194 187.584 158.912 187.707 158.68 187.953C158.448 188.199 158.332 188.51 158.332 188.887C158.332 189.271 158.445 189.586 158.669 189.832C158.901 190.078 159.187 190.201 159.527 190.201C159.867 190.201 160.157 190.078 160.396 189.832C160.635 189.578 160.754 189.263 160.754 188.887C160.754 188.51 160.635 188.199 160.396 187.953C160.157 187.707 159.867 187.584 159.527 187.584ZM165.771 191.809C165.257 191.809 164.775 191.689 164.326 191.45C163.884 191.211 163.53 190.871 163.262 190.429C162.994 189.987 162.86 189.477 162.86 188.898C162.86 188.319 162.994 187.808 163.262 187.366C163.53 186.917 163.884 186.574 164.326 186.335C164.775 186.096 165.257 185.976 165.771 185.976C166.285 185.976 166.763 186.096 167.204 186.335C167.653 186.574 168.012 186.917 168.279 187.366C168.547 187.808 168.681 188.319 168.681 188.898C168.681 189.477 168.547 189.987 168.279 190.429C168.012 190.871 167.653 191.211 167.204 191.45C166.763 191.689 166.285 191.809 165.771 191.809ZM165.771 190.147C166.082 190.147 166.346 190.031 166.563 189.799C166.788 189.568 166.9 189.267 166.9 188.898C166.9 188.529 166.788 188.228 166.563 187.996C166.346 187.757 166.082 187.638 165.771 187.638C165.452 187.638 165.184 187.754 164.967 187.985C164.75 188.217 164.641 188.521 164.641 188.898C164.641 189.267 164.75 189.568 164.967 189.799C165.184 190.031 165.452 190.147 165.771 190.147ZM177.263 186.128L175.536 191.656H173.734L172.93 188.518L172.104 191.656H170.302L168.575 186.128H170.345L171.236 189.604L172.159 186.128H173.701L174.602 189.582L175.493 186.128H177.263ZM178.708 189.43C178.744 189.676 178.871 189.893 179.088 190.082C179.313 190.27 179.584 190.364 179.903 190.364C180.193 190.364 180.421 190.299 180.587 190.169C180.754 190.038 180.87 189.901 180.935 189.756L182.401 190.179C182.213 190.693 181.912 191.095 181.499 191.385C181.087 191.667 180.551 191.809 179.892 191.809C179.392 191.809 178.925 191.689 178.491 191.45C178.057 191.211 177.705 190.871 177.438 190.429C177.177 189.987 177.047 189.477 177.047 188.898C177.047 188.326 177.173 187.819 177.427 187.377C177.68 186.936 178.024 186.592 178.458 186.345C178.893 186.099 179.371 185.976 179.892 185.976C180.435 185.976 180.902 186.103 181.293 186.356C181.691 186.603 181.995 186.946 182.205 187.388C182.415 187.823 182.52 188.319 182.52 188.876V189.43H178.708ZM180.989 188.311C180.996 188.232 180.964 188.116 180.891 187.964C180.826 187.812 180.71 187.674 180.544 187.551C180.384 187.428 180.167 187.366 179.892 187.366C179.559 187.366 179.291 187.457 179.088 187.638C178.893 187.819 178.77 188.043 178.719 188.311H180.989ZM183.068 186.128H184.524L184.774 186.693C184.889 186.498 185.056 186.331 185.273 186.193C185.49 186.049 185.751 185.976 186.055 185.976C186.403 185.976 186.703 186.056 186.957 186.215L186.348 187.801C186.196 187.692 186.008 187.638 185.784 187.638C185.501 187.638 185.273 187.728 185.099 187.909C184.933 188.09 184.85 188.366 184.85 188.735V191.656H183.068V186.128ZM188.345 189.43C188.381 189.676 188.508 189.893 188.725 190.082C188.949 190.27 189.221 190.364 189.539 190.364C189.829 190.364 190.057 190.299 190.224 190.169C190.39 190.038 190.506 189.901 190.571 189.756L192.037 190.179C191.849 190.693 191.549 191.095 191.136 191.385C190.723 191.667 190.187 191.809 189.529 191.809C189.029 191.809 188.562 191.689 188.128 191.45C187.693 191.211 187.342 190.871 187.074 190.429C186.813 189.987 186.683 189.477 186.683 188.898C186.683 188.326 186.81 187.819 187.063 187.377C187.317 186.936 187.661 186.592 188.095 186.345C188.529 186.099 189.007 185.976 189.529 185.976C190.072 185.976 190.539 186.103 190.93 186.356C191.328 186.603 191.632 186.946 191.842 187.388C192.052 187.823 192.157 188.319 192.157 188.876V189.43H188.345ZM190.626 188.311C190.633 188.232 190.6 188.116 190.528 187.964C190.463 187.812 190.347 187.674 190.18 187.551C190.021 187.428 189.804 187.366 189.529 187.366C189.196 187.366 188.928 187.457 188.725 187.638C188.529 187.819 188.406 188.043 188.356 188.311H190.626ZM195.214 191.809C194.736 191.809 194.287 191.689 193.867 191.45C193.454 191.211 193.121 190.871 192.868 190.429C192.614 189.987 192.488 189.477 192.488 188.898C192.488 188.319 192.614 187.808 192.868 187.366C193.121 186.917 193.454 186.574 193.867 186.335C194.28 186.096 194.721 185.976 195.192 185.976C195.54 185.976 195.844 186.041 196.104 186.172C196.372 186.295 196.568 186.432 196.691 186.584V184.054H198.472V191.656H197.017L196.778 191.113C196.633 191.287 196.43 191.446 196.169 191.591C195.916 191.736 195.598 191.809 195.214 191.809ZM195.496 190.201C195.829 190.201 196.112 190.078 196.343 189.832C196.575 189.586 196.691 189.274 196.691 188.898C196.691 188.514 196.575 188.199 196.343 187.953C196.119 187.707 195.836 187.584 195.496 187.584C195.156 187.584 194.866 187.71 194.627 187.964C194.388 188.21 194.269 188.521 194.269 188.898C194.269 189.274 194.388 189.586 194.627 189.832C194.866 190.078 195.156 190.201 195.496 190.201ZM205.207 191.809C204.824 191.809 204.501 191.736 204.241 191.591C203.987 191.446 203.788 191.287 203.643 191.113L203.404 191.656H201.949V184.054H203.73V186.584C203.853 186.432 204.045 186.295 204.306 186.172C204.574 186.041 204.881 185.976 205.229 185.976C205.699 185.976 206.141 186.096 206.554 186.335C206.966 186.574 207.3 186.917 207.553 187.366C207.806 187.808 207.933 188.319 207.933 188.898C207.933 189.477 207.806 189.987 207.553 190.429C207.3 190.871 206.963 191.211 206.543 191.45C206.13 191.689 205.685 191.809 205.207 191.809ZM204.925 190.201C205.265 190.201 205.555 190.078 205.794 189.832C206.033 189.586 206.152 189.274 206.152 188.898C206.152 188.521 206.033 188.21 205.794 187.964C205.555 187.71 205.265 187.584 204.925 187.584C204.585 187.584 204.298 187.707 204.067 187.953C203.842 188.199 203.73 188.514 203.73 188.898C203.73 189.274 203.846 189.586 204.077 189.832C204.309 190.078 204.592 190.201 204.925 190.201ZM213.786 186.128V191.32C213.764 192.174 213.489 192.815 212.96 193.242C212.439 193.677 211.769 193.894 210.951 193.894C210.27 193.894 209.72 193.727 209.3 193.394C208.888 193.068 208.612 192.645 208.475 192.123L210.115 191.809C210.144 191.982 210.227 192.123 210.365 192.232C210.509 192.341 210.705 192.395 210.951 192.395C211.255 192.395 211.505 192.301 211.7 192.113C211.903 191.924 212.005 191.635 212.005 191.244V190.896L211.994 190.874C211.827 191.07 211.632 191.226 211.407 191.341C211.19 191.457 210.907 191.515 210.56 191.515C209.858 191.515 209.34 191.305 209.007 190.885C208.674 190.458 208.508 189.799 208.508 188.909V186.128H210.288V188.746C210.288 189.137 210.361 189.419 210.506 189.593C210.651 189.767 210.861 189.854 211.136 189.854C211.715 189.854 212.005 189.492 212.005 188.767V186.128H213.786Z" fill="black"/>
</g>
<defs>
<clipPath id="clip0_613_9180">
<rect width="97" height="32.3193" fill="white" transform="translate(156 182)"/>
</clipPath>
</defs>
</svg>
